<svg xmlns="http://www.w3.org/2000/svg" xmlns:xlink="http://www.w3.org/1999/xlink" width="1200px" height="1404px" viewBox="0 0 1200 1403.692427081661">
    <g id="b57a9393-d6f3-49e3-b2e5-6885795e4085">
<g style="">
		<g id="b57a9393-d6f3-49e3-b2e5-6885795e4085-child-0">
<path style="stroke: rgb(193,193,193); stroke-opacity: 1.00; stroke-width: 0; stroke-dasharray: none; stroke-linecap: butt; stroke-dashoffset: 0; stroke-linejoin: miter; stroke-miterlimit: 4; fill: rgb(0,0,0); fill-opacity: 1.00; fill-rule: nonzero; opacity: 1;" transform="matrix(2.056582 0 0 2.056582 599.999889 701.846084) matrix(1 0 0 1 0 0)  translate(-512.105579, -521.417605)" d="M 497.50 861.59 C 475.82 856.56 457.21 842.27 448.18 823.73 C 442.89 812.85 441.00 804.61 441.00 792.35 C 441.00 775.82 445.27 762.98 455.30 749.37 C 457.79 746.00 461.44 742.01 463.41 740.50 L 467.00 737.76 L 467.00 622.38 C 467.00 530.80 466.74 506.98 465.75 506.89 C 465.06 506.84 463.83 506.69 463.00 506.56 C 462.17 506.44 458.91 506.27 455.75 506.17 L 450.00 506.00 L 450.00 493.00 C 450.00 484.83 450.16 481.35 448.70 480.41 C 447.50 479.65 445.20 480.58 440.84 482.05 C 405.83 493.85 380.71 522.60 372.73 560.00 C 370.11 572.28 369.95 593.43 372.38 606.95 C 374.48 618.70 380.04 635.63 385.11 645.72 C 387.23 649.93 388.80 653.53 388.62 653.72 C 387.89 654.45 372.87 648.50 360.50 642.57 C 334.96 630.35 315.62 616.62 294.92 596.01 C 273.66 574.85 259.77 555.57 246.99 529.50 C 237.49 510.11 233.13 498.52 228.50 480.32 C 219.39 444.50 217.95 409.82 224.06 373.31 C 235.44 305.42 275.14 243.57 331.00 206.71 C 336.77 202.90 348.02 196.57 356.00 192.63 C 370.08 185.68 386.56 179.22 387.59 180.26 C 387.87 180.54 386.12 185.21 383.69 190.63 C 370.02 221.24 367.49 247.43 375.71 273.48 C 384.99 302.92 408.34 326.06 439.43 336.64 C 449.91 340.21 450.00 340.18 450.00 332.50 L 450.00 326.00 L 458.50 326.00 C 463.14 326.00 465.39 326.19 466.42 325.17 C 467.54 324.06 467.25 321.54 467.05 315.85 C 466.91 312.19 467.08 308.33 467.41 307.27 C 468.32 304.41 510.83 263.81 512.52 264.18 C 513.32 264.36 523.65 273.65 535.49 284.83 L 557.00 305.17 L 557.00 325.92 L 574.50 326.50 L 575.10 339.20 L 578.80 338.53 C 584.30 337.53 597.55 331.94 605.50 327.27 C 626.87 314.71 642.19 294.96 649.59 270.46 C 653.17 258.60 654.08 237.12 651.56 223.69 C 649.60 213.22 644.61 198.33 639.61 188.00 C 637.61 183.88 636.36 180.38 636.83 180.22 C 638.57 179.64 655.95 186.40 668.71 192.61 C 752.94 233.69 806.88 326.13 803.72 424.00 C 803.03 445.32 801.02 459.66 795.88 479.95 C 779.35 545.31 736.97 601.18 678.10 635.24 C 666.35 642.04 639.26 654.00 635.62 654.00 C 635.27 654.00 636.73 650.51 638.86 646.25 C 657.35 609.37 658.91 565.62 642.86 533.71 C 633.15 514.38 616.15 497.19 597.31 487.65 C 592.17 485.05 578.15 480.00 576.07 480.00 C 575.37 480.00 575.00 483.95 575.00 491.42 C 575.00 497.70 574.73 503.55 574.39 504.42 C 573.91 505.68 572.17 506.00 565.89 506.00 C 559.09 506.00 557.98 506.24 557.88 507.75 C 557.82 508.71 557.82 560.76 557.89 623.41 L 558.00 737.32 L 563.29 742.91 C 576.88 757.27 583.00 772.55 583.00 792.07 C 583.00 812.95 577.22 826.92 562.56 841.52 C 552.69 851.35 544.91 856.13 532.50 859.97 C 523.47 862.77 506.06 863.57 497.50 861.59 Z M 348.21 549.57 C 354.19 555.96 356.00 556.72 356.00 552.84 C 356.00 549.28 361.76 533.44 366.37 524.30 C 375.26 506.69 388.03 491.76 402.66 481.89 C 412.91 474.97 430.54 466.73 441.24 463.85 L 449.99 461.50 L 449.99 450.75 C 450.00 444.74 450.19 441.69 448.80 440.54 C 447.25 439.27 443.75 440.38 435.86 442.44 C 410.16 449.14 389.60 460.43 372.24 477.35 C 359.24 490.04 353.51 498.65 345.53 517.50 L 343.84 521.50 L 340.04 514.00 C 335.74 505.51 332.44 494.60 330.38 482.05 C 328.99 473.54 327.24 439.05 328.25 440.00 C 328.54 440.27 330.18 445.74 331.88 452.15 C 333.58 458.56 335.42 464.98 335.97 466.43 L 336.97 469.06 L 344.24 464.16 C 373.08 444.67 406.11 432.17 444.50 426.23 L 449.50 425.45 L 450.03 358.21 L 444.76 356.97 C 433.00 354.21 414.47 345.79 402.92 337.95 C 392.80 331.09 378.53 316.63 371.89 306.51 C 368.63 301.55 365.60 297.03 365.14 296.46 C 364.69 295.89 363.15 292.52 361.73 288.98 C 360.30 285.44 358.72 282.41 358.20 282.23 C 356.72 281.74 344.98 295.40 336.65 307.31 C 329.08 318.14 318.52 337.77 313.69 350.02 C 309.59 360.41 305.19 376.68 303.12 389.05 C 295.95 431.96 303.28 475.66 324.14 514.20 C 331.43 527.67 341.31 542.19 348.21 549.57 Z M 667.59 548.75 C 668.61 552.74 669.74 556.00 670.10 556.00 C 670.46 556.00 673.20 553.19 676.20 549.75 C 698.17 524.51 713.69 492.13 720.40 457.50 C 732.34 395.90 714.44 333.96 670.68 285.50 L 666.16 280.50 L 664.50 284.50 C 656.93 302.69 650.42 312.39 637.19 325.19 C 621.72 340.14 604.62 350.08 584.66 355.69 L 574.97 358.41 L 575.50 425.31 L 589.00 427.60 C 619.61 432.81 650.42 444.68 676.84 461.44 C 682.52 465.05 687.54 468.00 687.97 468.00 C 688.41 468.00 690.21 462.71 691.96 456.25 C 696.77 438.48 696.83 438.38 696.91 448.00 C 697.03 464.50 693.44 495.10 690.98 498.50 C 690.59 499.05 689.69 501.30 688.99 503.50 C 688.29 505.70 686.15 510.65 684.22 514.50 C 680.86 521.20 680.67 521.39 679.67 519.00 C 672.39 501.54 664.67 489.65 653.01 477.98 C 636.74 461.69 612.62 448.54 587.05 442.01 C 580.56 440.36 577.56 439.40 576.17 440.50 C 574.82 441.56 575.00 444.57 575.00 450.75 L 575.01 461.50 L 584.75 464.29 C 626.20 476.18 657.12 507.70 667.59 548.75 Z M 668.45 617.88 C 667.74 620.95 668.89 620.52 679.82 613.70 C 729.26 582.83 767.20 528.46 780.44 469.50 C 782.95 458.34 786.36 434.03 785.54 433.20 C 785.29 432.96 780.31 434.63 774.48 436.91 C 768.65 439.20 762.44 441.34 760.69 441.67 L 757.50 442.27 L 760.98 438.38 C 762.89 436.25 769.50 429.33 775.66 423.00 L 786.87 411.50 L 785.94 399.51 C 784.48 380.47 780.93 362.14 774.97 342.80 C 773.32 337.47 771.46 332.78 770.83 332.40 C 770.15 331.97 765.58 336.04 759.39 342.60 C 753.73 348.59 749.07 352.98 749.05 352.34 C 748.99 350.85 754.60 336.21 759.86 324.16 L 763.93 314.82 L 759.88 306.75 C 741.43 270.06 708.62 235.12 674.70 216.02 C 671.52 214.23 668.72 212.94 668.49 213.17 C 668.27 213.40 668.82 216.49 669.72 220.04 C 671.62 227.50 672.04 256.78 670.35 263.50 L 669.34 267.50 L 676.95 275.50 C 717.60 318.24 740.06 380.24 735.07 435.98 C 730.76 484.27 710.00 531.44 678.25 565.11 L 672.00 571.74 L 672.00 584.74 C 672.00 595.80 670.66 608.28 668.45 617.88 Z M 348.00 615.40 C 355.04 619.68 357.00 620.59 357.00 619.58 C 357.00 619.35 356.34 616.54 355.53 613.33 C 353.61 605.74 351.81 582.93 352.63 576.70 C 353.28 571.86 353.26 571.82 347.77 566.17 C 330.28 548.17 308.97 513.45 301.53 490.84 C 297.44 478.40 293.26 461.18 291.57 449.84 C 289.49 435.79 289.48 406.28 291.56 392.13 C 297.85 349.36 317.55 308.57 347.53 276.23 L 355.19 267.97 L 353.96 257.23 C 352.61 245.34 353.23 228.92 355.39 219.75 C 356.13 216.59 356.33 214.00 355.84 214.00 C 354.23 214.00 345.69 218.73 338.34 223.68 C 315.89 238.79 293.74 261.48 277.58 285.91 C 271.45 295.19 262.00 312.53 262.00 314.51 C 262.00 315.43 263.63 319.85 265.61 324.34 C 270.45 335.28 276.14 351.00 275.25 351.00 C 274.86 351.00 270.15 346.63 264.78 341.28 C 258.65 335.17 254.69 331.93 254.11 332.53 C 252.72 333.98 246.40 354.67 244.10 365.27 C 241.43 377.61 239.00 396.49 239.01 404.80 L 239.02 411.50 L 245.76 418.51 C 269.62 443.35 269.88 443.74 260.32 440.49 C 257.68 439.59 252.51 437.54 248.84 435.93 C 239.30 431.74 238.80 431.87 239.53 438.25 C 243.26 470.83 250.74 497.26 263.15 521.73 C 282.81 560.46 313.71 594.58 348.00 615.40 Z M 469.30 488.36 C 469.96 488.63 489.85 488.77 513.50 488.68 L 556.50 488.50 L 556.76 416.75 L 557.01 345.00 L 467.96 345.00 L 468.03 416.43 C 468.09 470.92 468.39 487.99 469.30 488.36 Z M 504.97 843.94 C 515.34 845.47 528.38 843.05 538.31 837.75 C 549.99 831.53 558.99 820.89 563.26 808.24 C 565.46 801.71 565.80 787.14 563.93 779.50 C 561.04 767.72 553.63 756.90 543.66 749.90 C 533.87 743.02 525.52 740.56 512.00 740.57 C 492.42 740.58 479.06 747.76 467.76 764.37 C 454.36 784.05 456.57 809.77 473.17 827.52 C 481.89 836.84 491.92 842.02 504.97 843.94 Z M 532.50 675.34 C 534.15 675.55 536.40 675.68 537.50 675.62 C 539.46 675.50 539.50 674.72 539.72 632.50 L 539.94 589.50 L 535.72 586.54 C 533.40 584.91 525.20 579.34 517.50 574.15 C 509.80 568.97 499.54 562.03 494.70 558.72 C 488.54 554.52 485.58 553.02 484.84 553.76 C 484.16 554.44 483.92 560.60 484.15 571.16 L 484.50 587.52 L 491.18 599.01 C 500.14 614.44 514.26 642.00 513.20 642.00 C 512.26 642.00 500.88 630.36 491.22 619.51 L 485.00 612.53 L 485.00 658.68 L 492.75 662.26 C 507.97 669.29 522.18 673.96 532.50 675.34 Z M 521.00 563.44 C 530.08 570.33 537.79 575.97 538.14 575.98 C 538.50 575.99 539.08 575.22 539.45 574.28 C 540.19 572.33 540.03 513.59 539.26 509.59 L 538.77 507.00 L 485.00 507.00 L 485.00 538.50 L 494.75 544.71 C 500.11 548.13 511.92 556.56 521.00 563.44 Z M 541.93 428.25 L 542.00 477.00 L 482.00 477.00 L 482.00 429.06 C 482.00 398.18 482.36 380.90 483.00 380.50 C 483.55 380.16 484.00 380.16 484.00 380.51 C 484.00 382.17 499.04 456.25 499.54 457.06 C 499.86 457.58 505.91 458.00 512.99 458.00 L 525.86 458.00 L 526.91 452.75 C 527.49 449.86 530.67 433.10 533.98 415.50 C 537.30 397.90 540.42 382.60 540.94 381.50 C 541.52 380.23 541.89 397.39 541.93 428.25 Z M 523.74 816.63 C 520.14 818.49 508.86 819.39 504.99 818.13 C 488.75 812.80 480.38 794.47 487.35 779.49 C 491.59 770.40 499.69 764.97 510.14 764.22 C 521.94 763.38 531.06 768.20 536.51 778.18 C 538.99 782.70 539.43 784.62 539.44 791.00 C 539.46 797.21 539.00 799.38 536.80 803.59 C 533.97 808.98 529.07 813.88 523.74 816.63 Z M 485.00 715.90 L 485.00 726.81 L 491.75 724.68 C 501.38 721.64 523.68 721.70 532.48 724.78 C 535.76 725.94 538.69 726.65 538.97 726.36 C 539.26 726.07 539.61 717.79 539.76 707.94 C 540.03 690.06 540.03 690.04 537.76 689.58 C 523.11 686.56 518.13 685.28 510.00 682.44 C 504.77 680.62 497.35 677.64 493.50 675.83 C 489.65 674.02 486.16 672.38 485.75 672.18 C 485.34 671.99 485.00 677.01 485.00 683.34 L 485.00 694.85 L 490.27 697.35 C 493.17 698.72 499.58 700.98 504.53 702.37 C 509.48 703.76 515.03 705.53 516.87 706.30 C 520.09 707.66 520.13 707.73 517.86 708.34 C 512.50 709.77 497.99 709.01 492.26 707.00 C 489.13 705.90 486.22 705.00 485.78 705.00 C 485.35 705.00 485.00 709.91 485.00 715.90 Z M 485.67 325.33 C 486.03 325.70 498.18 326.00 512.67 326.00 L 539.00 326.00 L 539.00 313.93 L 526.39 301.71 C 519.45 295.00 513.33 289.33 512.77 289.13 C 512.22 288.92 505.75 294.77 498.39 302.11 C 485.08 315.39 485.00 315.50 485.00 320.07 C 485.00 322.60 485.30 324.97 485.67 325.33 Z" stroke-linecap="round"></path>
</g>
		<g id="b57a9393-d6f3-49e3-b2e5-6885795e4085-child-1">
<path style="stroke: rgb(193,193,193); stroke-opacity: 1.00; stroke-width: 0; stroke-dasharray: none; stroke-linecap: butt; stroke-dashoffset: 0; stroke-linejoin: miter; stroke-miterlimit: 4; fill: rgb(45,100,142); fill-opacity: 1.00; fill-rule: nonzero; opacity: 1;" transform="matrix(2.056582 0 0 2.056582 599.999889 701.846084) matrix(1 0 0 1 0.125322 -103.167604)  translate(-512.230901, -418.25)" d="M 667.59 548.75 C 657.12 507.70 626.20 476.18 584.75 464.29 L 575.01 461.50 L 575.00 450.75 C 575.00 444.57 574.82 441.56 576.17 440.50 C 577.56 439.40 580.56 440.36 587.05 442.01 C 612.62 448.54 636.74 461.69 653.01 477.98 C 664.67 489.65 672.39 501.54 679.67 519.00 C 680.67 521.39 680.86 521.20 684.22 514.50 C 686.15 510.65 688.29 505.70 688.99 503.50 C 689.69 501.30 690.59 499.05 690.98 498.50 C 691.28 498.09 691.60 497.27 691.92 496.13 C 691.72 496.94 691.53 497.69 691.33 498.38 C 691.01 499.48 691.20 500.00 691.78 499.64 C 693.32 498.69 700.80 481.02 703.58 471.78 C 710.68 448.17 712.64 413.32 708.20 389.76 C 702.56 359.81 689.91 332.46 668.99 304.98 C 660.91 294.38 660.50 294.11 658.43 298.18 C 656.94 301.08 654.88 304.32 652.41 307.69 C 656.89 301.17 660.55 293.99 664.50 284.50 L 666.16 280.50 L 670.68 285.50 C 714.44 333.96 732.34 395.90 720.40 457.50 C 713.69 492.13 698.17 524.51 676.20 549.75 C 673.20 553.19 670.46 556.00 670.10 556.00 C 669.74 556.00 668.61 552.74 667.59 548.75 Z M 348.21 549.57 C 341.31 542.19 331.43 527.67 324.14 514.20 C 303.28 475.66 295.95 431.96 303.12 389.05 C 305.19 376.68 309.59 360.41 313.69 350.02 C 318.52 337.77 329.08 318.14 336.65 307.31 C 344.98 295.40 356.72 281.74 358.20 282.23 C 358.72 282.41 360.30 285.44 361.73 288.98 C 362.92 291.96 364.20 294.80 364.85 295.98 C 363.49 296.34 361.02 298.36 357.96 301.75 C 346.68 314.22 332.79 337.92 325.32 357.45 C 308.44 401.58 310.70 459.78 330.76 497.22 C 333.90 503.09 335.28 502.58 333.37 496.25 C 332.43 493.14 331.60 489.37 330.90 485.02 C 332.97 496.32 336.08 506.19 340.04 514.00 L 343.84 521.50 L 345.53 517.50 C 353.51 498.65 359.24 490.04 372.24 477.35 C 389.60 460.43 410.16 449.14 435.86 442.44 C 443.75 440.38 447.25 439.27 448.80 440.54 C 450.19 441.69 450.00 444.74 449.99 450.75 L 449.99 461.50 L 441.24 463.85 C 430.54 466.73 412.91 474.97 402.66 481.89 C 388.03 491.76 375.26 506.69 366.37 524.30 C 361.76 533.44 356.00 549.28 356.00 552.84 C 356.00 556.72 354.19 555.96 348.21 549.57 Z M 469.30 488.36 C 468.45 488.01 468.13 473.12 468.05 426.83 C 468.16 450.77 468.48 464.91 468.92 464.45 C 469.43 463.93 471.12 453.94 472.67 442.25 C 474.34 429.67 475.90 421.13 476.50 421.33 C 477.05 421.51 477.76 424.32 478.08 427.58 L 478.66 433.50 L 479.02 427.00 L 479.37 420.50 L 479.93 428.50 C 480.31 433.82 480.71 427.35 481.12 409.18 C 481.54 391.03 482.13 381.47 482.87 380.73 C 482.88 380.72 482.89 380.71 482.90 380.70 C 482.32 382.73 482.00 399.78 482.00 429.06 L 482.00 477.00 L 542.00 477.00 L 541.93 428.25 C 541.89 397.39 541.52 380.23 540.94 381.50 C 541.60 380.06 541.89 381.76 541.94 387.50 C 542.05 398.64 543.11 406.98 544.09 404.46 C 544.73 402.82 544.89 403.00 545.05 405.50 L 545.24 408.50 L 545.96 405.50 C 546.68 402.50 546.68 402.50 547.31 405.00 C 548.05 407.88 551.12 429.96 553.71 451.00 L 555.50 465.50 L 556.14 456.50 C 556.36 453.43 556.58 441.87 556.72 426.82 L 556.50 488.50 L 513.50 488.68 C 489.85 488.77 469.96 488.63 469.30 488.36 Z M 612.36 344.08 C 620.96 339.12 629.01 333.02 636.66 325.70 C 631.17 331.08 625.45 335.91 620.32 339.31 C 617.88 340.92 615.20 342.53 612.36 344.08 Z M 368.09 300.77 C 369.20 302.44 370.53 304.44 371.89 306.51 C 374.49 310.47 378.25 315.09 382.48 319.66 C 378.26 315.12 374.48 310.55 371.90 306.69 C 370.45 304.53 369.12 302.45 368.09 300.77 Z M 694.33 482.82 C 695.80 471.83 696.98 457.55 696.91 448.00 C 696.98 458.02 695.90 471.61 694.33 482.82 Z M 328.31 455.25 C 328.61 461.68 329.06 468.95 329.55 474.57 C 329.00 469.09 328.59 463.03 328.35 456.50 C 328.34 456.08 328.32 455.66 328.31 455.25 Z M 468.00 382.95 L 467.96 345.00 L 468.00 345.00 L 468.00 382.95 Z M 483.35 380.32 C 483.73 380.06 484.00 380.06 484.00 380.37 C 484.00 381.26 487.85 400.69 491.72 419.78 C 487.85 400.73 484.00 381.35 484.00 380.51 C 484.00 380.24 483.73 380.18 483.35 380.32 Z M 557.00 345.00 L 557.01 345.00 L 556.98 353.77 L 557.00 345.00 Z" stroke-linecap="round"></path>
</g>
		<g id="b57a9393-d6f3-49e3-b2e5-6885795e4085-child-2">
<path style="stroke: rgb(193,193,193); stroke-opacity: 1.00; stroke-width: 0; stroke-dasharray: none; stroke-linecap: butt; stroke-dashoffset: 0; stroke-linejoin: miter; stroke-miterlimit: 4; fill: rgb(64,139,173); fill-opacity: 1.00; fill-rule: nonzero; opacity: 1;" transform="matrix(2.056582 0 0 2.056582 599.999889 701.846084) matrix(1 0 0 1 0.195864 -122.792582)  translate(-512.301443, -398.625023)" d="M 330.76 497.22 C 310.70 459.78 308.44 401.58 325.32 357.45 C 332.54 338.59 345.74 315.83 356.80 303.06 C 356.29 303.70 355.97 304.27 355.84 304.87 C 355.41 306.92 357.27 309.45 362.28 316.90 C 368.45 326.06 380.28 338.55 388.95 345.05 C 402.48 355.19 422.36 364.74 439.56 369.35 C 444.48 370.67 448.84 371.55 449.25 371.31 C 449.58 371.12 449.86 369.15 449.96 366.58 L 449.76 391.83 L 449.50 425.45 L 444.50 426.23 C 406.11 432.17 373.08 444.67 344.24 464.16 L 336.97 469.06 L 335.97 466.43 C 335.42 464.98 333.58 458.56 331.88 452.15 C 330.18 445.74 328.54 440.27 328.25 440.00 C 327.96 439.73 328.01 447.15 328.35 456.50 C 328.99 473.67 330.74 487.54 333.37 496.25 C 335.28 502.58 333.90 503.09 330.76 497.22 Z M 691.33 498.38 C 694.33 487.99 697.02 463.64 696.91 448.00 C 696.83 438.38 696.77 438.48 691.96 456.25 C 690.21 462.71 688.41 468.00 687.97 468.00 C 687.54 468.00 682.52 465.05 676.84 461.44 C 650.42 444.68 619.61 432.81 589.00 427.60 L 575.50 425.31 L 575.24 391.86 L 575.08 371.71 L 581.12 370.32 C 609.02 363.87 636.24 347.84 654.13 327.32 C 659.51 321.15 669.00 307.03 669.00 305.19 C 669.00 305.11 668.93 304.95 668.80 304.74 C 668.86 304.82 668.92 304.90 668.99 304.98 C 689.91 332.46 702.56 359.81 708.20 389.76 C 712.64 413.32 710.68 448.17 703.58 471.78 C 700.80 481.02 693.32 498.69 691.78 499.64 C 691.20 500.00 691.01 499.48 691.33 498.38 Z M 469.36 463.04 C 471.39 453.90 477.10 406.49 480.40 370.50 L 481.50 358.50 L 542.50 358.50 L 543.68 372.50 C 544.29 379.76 546.21 395.78 548.05 409.11 C 547.72 407.03 547.47 405.60 547.31 405.00 C 546.68 402.50 546.68 402.50 545.96 405.50 L 545.24 408.50 L 545.05 405.50 C 544.89 403.00 544.73 402.82 544.09 404.46 C 543.11 406.98 542.05 398.64 541.94 387.50 C 541.89 381.76 541.60 380.06 540.94 381.50 C 540.42 382.60 537.30 397.90 533.98 415.50 C 530.67 433.10 527.49 449.86 526.91 452.75 L 525.86 458.00 L 512.99 458.00 C 505.91 458.00 499.86 457.58 499.54 457.06 C 499.01 456.20 484.00 382.13 484.00 380.37 C 484.00 379.94 483.49 380.11 482.87 380.73 C 482.13 381.47 481.54 391.03 481.12 409.18 C 480.71 427.35 480.31 433.82 479.93 428.50 L 479.37 420.50 L 479.02 427.00 L 478.66 433.50 L 478.08 427.58 C 477.76 424.32 477.05 421.51 476.50 421.33 C 475.90 421.13 474.34 429.67 472.67 442.25 C 471.43 451.57 470.11 459.82 469.36 463.04 Z M 468.00 405.20 C 468.00 431.24 468.23 453.00 468.56 461.15 C 468.21 453.57 468.00 433.44 468.00 405.20 Z M 665.78 300.81 C 665.42 300.38 665.04 299.94 664.64 299.49 L 662.00 296.49 C 662.90 297.25 664.08 298.65 665.78 300.81 Z M 450.03 358.21 L 450.00 361.57 L 450.00 358.20 L 450.03 358.21 Z M 575.00 358.40 L 575.00 361.73 L 574.97 358.41 L 575.00 358.40 Z M 364.37 296.15 C 365.41 295.69 366.00 295.92 366.00 296.93 C 366.00 295.95 365.39 295.73 364.37 296.15 Z" stroke-linecap="round"></path>
</g>
		<g id="b57a9393-d6f3-49e3-b2e5-6885795e4085-child-3">
<path style="stroke: rgb(193,193,193); stroke-opacity: 1.00; stroke-width: 0; stroke-dasharray: none; stroke-linecap: butt; stroke-dashoffset: 0; stroke-linejoin: miter; stroke-miterlimit: 4; fill: rgb(83,53,46); fill-opacity: 1.00; fill-rule: nonzero; opacity: 1;" transform="matrix(2.056582 0 0 2.056582 599.999889 701.846084) matrix(1 0 0 1 -0.018141 154.278681)  translate(-512.087438, -675.696285)" d="M 504.97 843.94 C 491.92 842.02 481.89 836.84 473.17 827.52 C 460.87 814.38 456.47 796.86 460.46 780.66 C 460.16 782.17 460.00 783.63 460.00 785.00 C 460.00 789.86 464.47 800.15 469.66 807.22 C 476.20 816.12 488.41 823.55 500.50 825.98 C 506.41 827.16 516.82 827.15 523.57 825.94 C 532.35 824.37 545.09 817.66 550.83 811.58 C 555.37 806.76 563.00 795.05 563.00 792.89 C 563.00 792.33 563.45 792.16 564.00 792.50 C 565.46 793.40 565.23 784.45 563.64 778.50 C 562.95 775.90 562.05 773.37 560.97 770.94 C 562.21 773.70 563.21 776.57 563.93 779.50 C 565.80 787.14 565.46 801.71 563.26 808.24 C 558.99 820.89 549.99 831.53 538.31 837.75 C 528.38 843.05 515.34 845.47 504.97 843.94 Z M 521.00 563.44 C 511.92 556.56 500.11 548.13 494.75 544.71 L 485.00 538.50 L 485.00 507.00 L 538.77 507.00 L 539.26 509.59 C 540.03 513.59 540.19 572.33 539.45 574.28 C 539.13 575.10 538.64 575.79 538.29 575.95 C 538.68 575.18 539.00 562.89 539.00 547.97 L 539.00 519.93 L 518.55 520.04 L 498.11 520.15 L 497.80 533.18 L 497.50 546.22 L 505.00 551.55 C 509.12 554.48 518.12 561.18 525.00 566.43 C 526.51 567.58 527.98 568.69 529.35 569.72 C 526.86 567.87 524.01 565.72 521.00 563.44 Z M 513.23 641.98 C 513.87 641.24 500.02 614.22 491.18 599.01 L 484.50 587.52 L 484.15 571.16 C 483.92 560.60 484.16 554.44 484.84 553.76 C 485.58 553.02 488.54 554.52 494.70 558.72 C 498.81 561.53 506.83 566.96 513.87 571.71 C 506.36 566.70 500.00 562.55 499.38 562.32 C 498.23 561.87 498.00 565.82 498.00 586.00 L 498.00 610.22 L 506.03 626.11 C 510.44 634.85 513.71 642.00 513.30 642.00 C 513.28 642.00 513.26 641.99 513.23 641.98 Z M 498.00 664.61 C 496.27 663.86 494.52 663.08 492.75 662.26 L 485.00 658.68 L 485.00 612.53 L 491.22 619.51 C 497.78 626.88 505.14 634.62 509.47 638.82 C 508.23 637.66 506.78 636.27 505.27 634.78 L 498.00 627.55 L 498.00 664.61 Z M 502.42 701.75 C 497.89 700.37 492.77 698.53 490.27 697.35 L 485.00 694.85 L 485.00 683.34 C 485.00 677.01 485.34 671.99 485.75 672.18 C 486.16 672.38 489.65 674.02 493.50 675.83 C 497.35 677.64 504.77 680.62 510.00 682.44 C 511.49 682.96 512.88 683.43 514.24 683.86 C 512.80 683.41 511.35 682.92 509.79 682.38 C 504.45 680.52 499.61 679.00 499.04 679.00 C 498.39 679.00 498.00 682.89 498.00 689.52 C 498.00 695.10 497.68 697.75 498.81 699.44 C 499.45 700.40 500.54 701.05 502.42 701.75 Z M 485.00 715.90 C 485.00 709.91 485.35 705.00 485.78 705.00 C 486.22 705.00 489.13 705.90 492.26 707.00 C 495.07 707.99 499.99 708.67 504.90 708.95 L 498.00 709.00 L 498.00 712.38 C 498.00 714.23 498.27 717.09 498.60 718.74 L 499.20 721.73 L 512.85 722.28 C 516.34 722.42 519.25 722.60 521.73 722.83 C 511.54 721.94 498.51 722.54 491.75 724.68 L 485.00 726.81 Z M 463.98 770.90 C 465.06 768.66 466.32 766.48 467.76 764.37 C 472.68 757.13 478.00 751.69 484.05 747.84 C 481.72 749.40 479.46 751.23 477.20 753.36 C 471.65 758.60 467.03 764.83 463.98 770.90 Z M 536.95 675.63 C 536.96 675.62 536.98 675.62 537.00 675.61 C 538.41 674.89 539.06 672.68 539.37 667.21 C 539.11 675.27 538.62 675.55 537.50 675.62 C 537.34 675.63 537.15 675.63 536.95 675.63 Z M 514.11 670.80 C 509.86 669.39 505.37 667.71 500.73 665.77 L 507.25 668.24 C 509.94 669.26 512.18 670.10 514.11 670.80 Z M 539.41 720.88 C 539.27 724.14 539.11 726.22 538.97 726.36 C 538.92 726.41 538.78 726.43 538.56 726.42 C 538.89 725.59 539.19 723.65 539.41 720.88 Z M 537.98 689.62 C 539.47 689.95 539.87 690.35 539.88 697.27 C 539.78 690.71 539.44 689.98 537.98 689.62 Z M 538.20 575.98 C 538.18 575.98 538.16 575.98 538.14 575.98 C 538.01 575.98 536.78 575.14 534.80 573.72 C 536.66 575.04 537.90 575.87 538.20 575.98 Z M 524.48 686.69 C 527.44 687.40 530.89 688.15 535.28 689.06 C 530.95 688.17 527.49 687.41 524.48 686.69 Z M 539.94 589.50 L 535.72 586.54 C 535.53 586.41 535.34 586.27 535.14 586.13 C 535.36 586.29 535.56 586.42 535.72 586.54 L 539.94 589.50 Z" stroke-linecap="round"></path>
</g>
		<g id="b57a9393-d6f3-49e3-b2e5-6885795e4085-child-4">
<path style="stroke: rgb(193,193,193); stroke-opacity: 1.00; stroke-width: 0; stroke-dasharray: none; stroke-linecap: butt; stroke-dashoffset: 0; stroke-linejoin: miter; stroke-miterlimit: 4; fill: rgb(127,87,74); fill-opacity: 1.00; fill-rule: nonzero; opacity: 1;" transform="matrix(2.056582 0 0 2.056582 599.999889 701.846084) matrix(1 0 0 1 0.381627 42.35557)  translate(-512.487206, -563.773174)" d="M 500.50 825.98 C 488.41 823.55 476.20 816.12 469.66 807.22 C 464.47 800.15 460.00 789.86 460.00 785.00 C 460.00 778.84 463.21 770.94 468.43 763.51 C 467.04 766.40 467.00 769.37 467.41 774.40 C 467.77 778.93 468.42 783.93 468.85 785.52 C 469.57 788.24 469.72 788.04 471.34 782.27 C 476.95 762.31 497.92 748.69 518.06 751.93 C 535.90 754.81 551.44 769.41 553.69 785.42 L 554.40 790.50 L 555.61 785.50 C 556.27 782.75 556.85 777.78 556.90 774.45 C 556.96 771.12 557.46 767.94 558.02 767.38 C 558.46 766.94 558.29 765.98 557.66 764.71 C 560.31 768.96 562.33 773.60 563.64 778.50 C 565.23 784.45 565.46 793.40 564.00 792.50 C 563.45 792.16 563.00 792.33 563.00 792.89 C 563.00 795.05 555.37 806.76 550.83 811.58 C 545.09 817.66 532.35 824.37 523.57 825.94 C 516.82 827.15 506.41 827.16 500.50 825.98 Z M 529.55 674.91 C 522.73 673.89 520.04 673.09 507.25 668.24 L 498.00 664.74 L 498.00 627.55 L 505.27 634.78 C 509.27 638.75 512.89 642.00 513.30 642.00 C 513.71 642.00 510.44 634.85 506.03 626.11 L 498.00 610.22 L 498.00 586.00 C 498.00 565.82 498.23 561.87 499.38 562.32 C 500.64 562.80 525.52 579.38 535.72 586.54 L 539.94 589.50 L 539.72 632.50 C 539.55 665.53 540.05 674.07 537.00 675.61 C 535.52 676.36 533.20 675.45 529.55 674.91 Z M 523.74 816.63 C 529.07 813.88 533.97 808.98 536.80 803.59 C 539.00 799.38 539.46 797.21 539.44 791.00 C 539.43 784.62 538.99 782.70 536.51 778.18 C 531.06 768.20 521.94 763.38 510.14 764.22 C 499.69 764.97 491.59 770.40 487.35 779.49 C 480.38 794.47 488.75 812.80 504.99 818.13 C 508.86 819.39 520.14 818.49 523.74 816.63 Z M 525.00 566.43 C 518.12 561.18 509.12 554.48 505.00 551.55 L 497.50 546.22 L 497.80 533.18 L 498.11 520.15 L 518.55 520.04 L 539.00 519.93 L 539.00 547.97 C 539.00 563.38 538.66 575.99 538.25 575.99 C 537.84 575.98 531.88 571.68 525.00 566.43 Z M 532.00 724.80 C 528.01 723.38 522.74 722.68 512.85 722.28 L 499.20 721.73 L 498.60 718.74 C 498.27 717.09 498.00 714.23 498.00 712.38 L 498.00 709.00 L 507.25 708.93 C 521.14 708.82 522.05 707.88 511.43 704.58 C 503.40 702.08 500.12 701.42 498.81 699.44 C 497.68 697.75 498.00 695.10 498.00 689.52 C 498.00 682.89 498.39 679.00 499.04 679.00 C 499.61 679.00 504.45 680.52 509.79 682.38 C 518.07 685.26 523.53 686.66 537.69 689.56 C 539.80 689.99 539.87 690.45 539.92 703.25 C 539.98 717.07 539.22 727.09 538.13 726.88 C 537.79 726.81 535.03 725.88 532.00 724.80 Z M 485.67 325.33 C 485.30 324.97 485.00 322.60 485.00 320.07 C 485.00 315.88 485.07 315.44 495.34 305.16 C 486.08 314.45 485.37 315.62 487.23 316.15 C 493.64 317.99 495.82 317.09 504.99 308.84 C 508.55 305.63 511.79 303.00 512.18 303.00 C 512.57 303.00 516.23 305.92 520.32 309.50 C 527.57 315.85 527.87 316.00 533.37 316.00 C 536.59 316.00 539.00 315.56 539.00 314.96 C 539.00 314.39 532.08 307.30 525.33 300.69 C 525.68 301.03 526.03 301.37 526.39 301.71 L 539.00 313.93 L 539.00 326.00 L 512.67 326.00 C 498.18 326.00 486.03 325.70 485.67 325.33 Z M 475.58 754.94 C 476.11 754.41 476.65 753.88 477.20 753.36 C 481.59 749.22 485.98 746.21 490.87 744.16 C 485.86 746.28 481.37 749.41 476.76 753.81 C 476.35 754.20 475.96 754.58 475.58 754.94 Z M 544.17 750.26 C 547.03 752.32 549.65 754.66 552.00 757.24 C 549.65 754.74 546.89 752.22 544.17 750.26 Z" stroke-linecap="round"></path>
</g>
		<g id="b57a9393-d6f3-49e3-b2e5-6885795e4085-child-5">
<path style="stroke: rgb(193,193,193); stroke-opacity: 1.00; stroke-width: 0; stroke-dasharray: none; stroke-linecap: butt; stroke-dashoffset: 0; stroke-linejoin: miter; stroke-miterlimit: 4; fill: rgb(163,179,189); fill-opacity: 1.00; fill-rule: nonzero; opacity: 1;" transform="matrix(2.056582 0 0 2.056582 599.999889 701.846084) matrix(1 0 0 1 3.774421 13.827396)  translate(-515.88, -535.245)" d="M 468.00 405.06 L 468.00 345.00 L 557.00 345.00 L 556.89 396.25 C 556.84 424.44 556.50 451.55 556.14 456.50 L 555.50 465.50 L 553.71 451.00 C 552.72 443.02 550.33 425.25 548.39 411.50 C 546.44 397.75 544.33 380.20 543.68 372.50 L 542.50 358.50 L 481.50 358.50 L 480.40 370.50 C 476.76 410.18 470.19 463.76 468.86 464.58 C 468.38 464.88 468.00 438.48 468.00 405.06 Z M 356.40 616.89 C 355.99 615.58 355.31 614.32 354.68 614.10 C 351.66 613.07 336.25 596.64 331.39 589.27 C 321.27 573.93 309.90 549.05 304.49 530.37 C 300.07 515.13 298.01 497.98 299.09 485.50 C 299.16 484.75 298.58 481.69 297.67 477.80 C 298.91 482.41 300.22 486.87 301.53 490.84 C 308.97 513.45 330.28 548.17 347.77 566.17 C 353.26 571.82 353.28 571.86 352.63 576.70 C 351.81 582.93 353.61 605.74 355.53 613.33 C 355.86 614.63 356.16 615.86 356.40 616.89 Z M 668.45 617.88 C 670.66 608.28 672.00 595.80 672.00 584.74 L 672.00 571.74 L 678.25 565.11 C 708.04 533.52 728.15 490.04 734.09 444.91 C 732.93 454.68 731.06 464.31 728.48 473.64 C 726.71 480.03 726.02 485.05 726.01 491.64 C 725.98 513.44 716.46 544.89 700.78 575.00 C 691.15 593.48 686.19 600.58 676.39 609.93 C 672.59 613.56 669.35 616.99 668.33 618.44 C 668.36 618.27 668.40 618.08 668.45 617.88 Z M 439.56 369.35 C 422.36 364.74 402.48 355.19 388.95 345.05 C 380.28 338.55 368.45 326.06 362.28 316.90 C 357.27 309.45 355.41 306.92 355.84 304.87 C 356.11 303.60 357.26 302.50 359.10 300.51 C 362.96 296.32 366.00 294.74 366.00 296.93 C 366.00 297.45 368.66 301.84 371.90 306.69 C 378.54 316.62 393.09 331.28 402.92 337.95 C 414.46 345.78 433.00 354.21 444.75 356.97 L 450.00 358.20 L 450.00 364.54 C 450.00 368.03 449.66 371.08 449.25 371.31 C 448.84 371.55 444.48 370.67 439.56 369.35 Z M 575.00 358.40 L 584.67 355.68 C 596.07 352.48 610.29 345.95 620.32 339.31 C 634.10 330.19 651.89 310.96 658.51 298.02 L 660.29 294.54 L 664.64 299.49 C 667.04 302.22 669.00 304.78 669.00 305.19 C 669.00 307.03 659.51 321.15 654.13 327.32 C 636.24 347.84 609.02 363.87 581.12 370.32 L 575.00 371.73 L 575.00 358.40 Z M 553.69 785.42 C 551.44 769.41 535.90 754.81 518.06 751.93 C 497.92 748.69 476.95 762.31 471.34 782.27 C 469.72 788.04 469.57 788.24 468.85 785.52 C 468.42 783.93 467.77 778.93 467.41 774.40 C 466.61 764.61 467.51 762.63 476.76 753.81 C 486.86 744.17 496.44 740.57 512.00 740.57 C 525.55 740.56 533.86 743.02 543.72 749.94 C 551.49 755.39 559.83 765.57 558.02 767.38 C 557.46 767.94 556.96 771.12 556.90 774.45 C 556.85 777.78 556.27 782.75 555.61 785.50 L 554.40 790.50 Z M 487.23 316.15 C 485.18 315.56 486.25 314.21 498.37 302.13 C 505.74 294.77 512.22 288.92 512.77 289.13 C 514.53 289.78 539.00 313.88 539.00 314.96 C 539.00 315.56 536.59 316.00 533.37 316.00 C 527.87 316.00 527.57 315.85 520.32 309.50 C 516.23 305.92 512.57 303.00 512.18 303.00 C 511.79 303.00 508.55 305.63 504.99 308.84 C 495.82 317.09 493.64 317.99 487.23 316.15 Z M 681.09 279.99 C 704.59 306.26 722.01 339.58 730.07 373.85 C 730.21 374.44 730.34 375.04 730.48 375.64 C 722.36 340.77 705.19 306.94 681.09 279.99 Z M 356.52 619.95 C 356.82 619.81 356.88 619.23 356.78 618.47 C 356.92 619.10 357.00 619.50 357.00 619.58 C 357.00 619.85 356.86 619.98 356.52 619.95 Z M 669.16 619.67 C 670.65 619.27 673.78 617.47 679.82 613.70 C 673.54 617.62 670.49 619.43 669.16 619.67 Z M 348.00 615.40 C 350.99 617.22 353.80 618.80 355.29 619.54 C 353.94 618.93 351.65 617.62 348.00 615.40 Z" stroke-linecap="round"></path>
</g>
		<g id="b57a9393-d6f3-49e3-b2e5-6885795e4085-child-6">
<path style="stroke: rgb(193,193,193); stroke-opacity: 1.00; stroke-width: 0; stroke-dasharray: none; stroke-linecap: butt; stroke-dashoffset: 0; stroke-linejoin: miter; stroke-miterlimit: 4; fill: rgb(235,235,235); fill-opacity: 1.00; fill-rule: nonzero; opacity: 1;" transform="matrix(2.056582 0 0 2.056582 599.999889 701.846084) matrix(1 0 0 1 0.834406 -104.855823)  translate(-512.939985, -416.561781)" d="M 348.00 615.40 C 313.71 594.58 282.81 560.46 263.15 521.73 C 250.74 497.26 243.26 470.83 239.53 438.25 C 238.80 431.87 239.30 431.74 248.84 435.93 C 252.51 437.54 257.68 439.59 260.32 440.49 C 269.88 443.74 269.62 443.35 245.76 418.51 L 239.02 411.50 L 239.01 404.80 C 239.00 396.49 241.43 377.61 244.10 365.27 C 246.40 354.67 252.72 333.98 254.11 332.53 C 254.69 331.93 258.65 335.17 264.78 341.28 C 270.15 346.63 274.86 351.00 275.25 351.00 C 276.14 351.00 270.45 335.28 265.61 324.34 C 263.63 319.85 262.00 315.43 262.00 314.51 C 262.00 312.53 271.45 295.19 277.58 285.91 C 293.74 261.48 315.89 238.79 338.34 223.68 C 345.69 218.73 354.23 214.00 355.84 214.00 C 356.33 214.00 356.13 216.59 355.39 219.75 C 353.23 228.92 352.61 245.34 353.96 257.23 L 355.19 267.97 L 347.53 276.23 C 317.55 308.57 297.85 349.36 291.56 392.13 C 289.48 406.28 289.49 435.79 291.57 449.84 C 292.44 455.66 294.52 465.62 296.21 471.97 C 297.89 478.31 299.19 484.40 299.09 485.50 C 298.01 497.98 300.07 515.13 304.49 530.37 C 309.90 549.05 321.27 573.93 331.39 589.27 C 336.25 596.64 351.66 613.07 354.68 614.10 C 356.06 614.57 357.62 620.01 356.36 619.98 C 355.89 619.97 352.12 617.91 348.00 615.40 Z M 668.00 619.07 C 668.00 618.45 671.78 614.33 676.39 609.93 C 686.19 600.58 691.15 593.48 700.78 575.00 C 716.46 544.89 725.98 513.44 726.01 491.64 C 726.02 485.05 726.71 480.03 728.48 473.64 C 737.26 441.90 737.82 406.83 730.07 373.85 C 721.55 337.60 702.54 302.41 676.95 275.50 L 669.34 267.50 L 670.35 263.50 C 672.04 256.78 671.62 227.50 669.72 220.04 C 668.82 216.49 668.27 213.40 668.49 213.17 C 668.72 212.94 671.52 214.23 674.70 216.02 C 708.62 235.12 741.43 270.06 759.88 306.75 L 763.93 314.82 L 759.86 324.16 C 754.60 336.21 748.99 350.85 749.05 352.34 C 749.07 352.98 753.73 348.59 759.39 342.60 C 765.58 336.04 770.15 331.97 770.83 332.40 C 771.46 332.78 773.32 337.47 774.97 342.80 C 780.93 362.14 784.48 380.47 785.94 399.51 L 786.87 411.50 L 775.66 423.00 C 769.50 429.33 762.89 436.25 760.98 438.38 L 757.50 442.27 L 760.69 441.67 C 762.44 441.34 768.65 439.20 774.48 436.91 C 780.31 434.63 785.29 432.96 785.54 433.20 C 786.36 434.03 782.95 458.34 780.44 469.50 C 767.20 528.46 729.26 582.83 679.82 613.70 C 670.28 619.66 668.00 620.69 668.00 619.07 Z" stroke-linecap="round"></path>
</g>
</g>
</g>

  </svg>